<svg width="147" height="24" viewBox="0 0 147 24" fill="none" xmlns="http://www.w3.org/2000/svg">
<path d="M22.69 4.661C20.796 3.282 19.448 3.312 18.936 3.395C18.8658 3.40714 18.7987 3.43311 18.7386 3.47139C18.6786 3.50967 18.6267 3.5595 18.586 3.618L13.966 9.992L11.703 13.115C11.4262 13.497 11.2658 13.9509 11.241 14.422L10.945 20.046C10.94 20.1393 10.9583 20.2324 10.9984 20.3167C11.0386 20.4011 11.0992 20.4741 11.1747 20.5291C11.2502 20.584 11.3383 20.6192 11.431 20.6314C11.5236 20.6437 11.6178 20.6325 11.705 20.599L16.961 18.589C17.404 18.419 17.789 18.124 18.067 17.74L19.911 15.195L24.947 8.246C24.991 8.18571 25.0225 8.11724 25.0397 8.04459C25.0569 7.97195 25.0594 7.89661 25.047 7.823C24.963 7.297 24.56 6.021 22.69 4.661ZM16.977 17.465L14.934 18.254C14.8954 18.2692 14.853 18.2713 14.8131 18.2601C14.7732 18.2489 14.738 18.225 14.713 18.192C14.4065 17.7984 14.0444 17.4514 13.638 17.162C13.2373 16.8653 12.7962 16.6275 12.328 16.456C12.2891 16.4418 12.2558 16.4155 12.2331 16.3809C12.2104 16.3463 12.1995 16.3053 12.202 16.264L12.324 14.078L12.873 13.323C12.873 13.323 14.102 13.154 15.706 14.321C17.308 15.487 17.527 16.709 17.527 16.709L16.977 17.465Z" fill="#2541B2"/>
<path d="M38.688 17C38.156 17 37.6987 16.8087 37.316 16.426C36.9333 16.0433 36.742 15.586 36.742 15.054V14.284H38.59V14.648C38.59 14.9093 38.604 15.0587 38.632 15.096C38.6693 15.124 38.8187 15.138 39.08 15.138H44.47C44.7313 15.138 44.876 15.124 44.904 15.096C44.9413 15.0587 44.96 14.9093 44.96 14.648V13.374C44.96 13.1127 44.9413 12.968 44.904 12.94C44.876 12.9027 44.7313 12.884 44.47 12.884H38.688C38.156 12.884 37.6987 12.6927 37.316 12.31C36.9333 11.9273 36.742 11.47 36.742 10.938V8.866C36.742 8.334 36.9333 7.87667 37.316 7.494C37.6987 7.11133 38.156 6.92 38.688 6.92H44.876C45.408 6.92 45.8653 7.11133 46.248 7.494C46.6307 7.87667 46.822 8.334 46.822 8.866V9.636H44.96V9.272C44.96 9.01067 44.9413 8.866 44.904 8.838C44.876 8.80067 44.7313 8.782 44.47 8.782H39.08C38.8187 8.782 38.6693 8.80067 38.632 8.838C38.604 8.866 38.59 9.01067 38.59 9.272V10.546C38.59 10.8073 38.604 10.952 38.632 10.98C38.6693 11.008 38.8187 11.022 39.08 11.022H44.876C45.408 11.022 45.8653 11.218 46.248 11.61C46.6307 11.9927 46.822 12.45 46.822 12.982V15.054C46.822 15.586 46.6307 16.0433 46.248 16.426C45.8653 16.8087 45.408 17 44.876 17H38.688ZM50.2124 17C49.6804 17 49.2231 16.8133 48.8404 16.44C48.4671 16.0573 48.2804 15.6 48.2804 15.068V10.812C48.2804 10.28 48.4671 9.82733 48.8404 9.454C49.2231 9.07133 49.6804 8.88 50.2124 8.88H56.5124V10.714H50.6044C50.3431 10.714 50.1937 10.7327 50.1564 10.77C50.1284 10.798 50.1144 10.9427 50.1144 11.204V14.676C50.1144 14.9373 50.1284 15.0867 50.1564 15.124C50.1937 15.152 50.3431 15.166 50.6044 15.166H56.5264V17H50.2124ZM57.9331 17V10.812C57.9331 10.28 58.1197 9.82733 58.4931 9.454C58.8757 9.07133 59.3331 8.88 59.8651 8.88H64.3731V10.714H60.2571C59.9957 10.714 59.8464 10.7327 59.8091 10.77C59.7811 10.798 59.7671 10.9427 59.7671 11.204V17H57.9331ZM67.3709 17C66.8389 17 66.3816 16.8133 65.9989 16.44C65.6256 16.0573 65.4389 15.6 65.4389 15.068V12.016H71.8509V11.204C71.8509 10.9427 71.8323 10.798 71.7949 10.77C71.7669 10.7327 71.6223 10.714 71.3609 10.714H65.4389V8.88H71.7529C72.2849 8.88 72.7376 9.07133 73.1109 9.454C73.4936 9.82733 73.6849 10.28 73.6849 10.812V17H67.3709ZM67.7629 15.166H71.8509V13.668H67.2729V14.676C67.2729 14.9373 67.2869 15.0867 67.3149 15.124C67.3523 15.152 67.5016 15.166 67.7629 15.166ZM77.1056 17C76.5736 17 76.1163 16.8133 75.7336 16.44C75.3603 16.0573 75.1736 15.6 75.1736 15.068V6.388H77.0076V8.88H80.1716V10.714H77.0076V14.676C77.0076 14.9373 77.0216 15.0867 77.0496 15.124C77.087 15.152 77.2363 15.166 77.4976 15.166H80.1716V17H77.1056ZM83.2163 17C82.6843 17 82.227 16.8133 81.8443 16.44C81.471 16.0573 81.2843 15.6 81.2843 15.068V10.812C81.2843 10.28 81.471 9.82733 81.8443 9.454C82.227 9.07133 82.6843 8.88 83.2163 8.88H89.5163V10.714H83.6083C83.347 10.714 83.1976 10.7327 83.1603 10.77C83.1323 10.798 83.1183 10.9427 83.1183 11.204V14.676C83.1183 14.9373 83.1323 15.0867 83.1603 15.124C83.1976 15.152 83.347 15.166 83.6083 15.166H89.5303V17H83.2163ZM90.7052 17V6.22H92.5392V8.88H97.0192C97.5419 8.88 97.9946 9.07133 98.3772 9.454C98.7599 9.82733 98.9512 10.28 98.9512 10.812V17H97.1172V11.204C97.1172 10.9427 97.0986 10.798 97.0612 10.77C97.0332 10.7327 96.8886 10.714 96.6272 10.714H93.0292C92.7679 10.714 92.6186 10.7327 92.5812 10.77C92.5532 10.798 92.5392 10.9427 92.5392 11.204V17H90.7052ZM100.085 17V6.934H108.205C108.746 6.934 109.208 7.12533 109.591 7.508C109.973 7.89067 110.165 8.348 110.165 8.88V11.596C110.165 12.128 109.973 12.5853 109.591 12.968C109.208 13.3507 108.746 13.542 108.205 13.542L101.933 13.556V17H100.085ZM102.423 11.68H107.813C108.065 11.68 108.209 11.666 108.247 11.638C108.284 11.6007 108.303 11.456 108.303 11.204V9.272C108.303 9.01067 108.284 8.866 108.247 8.838C108.209 8.80067 108.065 8.782 107.813 8.782H102.423C102.161 8.782 102.012 8.80067 101.975 8.838C101.947 8.866 101.933 9.01067 101.933 9.272V11.204C101.933 11.456 101.947 11.6007 101.975 11.638C102.012 11.666 102.161 11.68 102.423 11.68ZM113.035 17C112.503 17 112.046 16.8133 111.663 16.44C111.29 16.0573 111.103 15.6 111.103 15.068V12.016H117.515V11.204C117.515 10.9427 117.496 10.798 117.459 10.77C117.431 10.7327 117.286 10.714 117.025 10.714H111.103V8.88H117.417C117.949 8.88 118.402 9.07133 118.775 9.454C119.158 9.82733 119.349 10.28 119.349 10.812V17H113.035ZM113.427 15.166H117.515V13.668H112.937V14.676C112.937 14.9373 112.951 15.0867 112.979 15.124C113.016 15.152 113.166 15.166 113.427 15.166ZM122.35 17C121.818 17 121.36 16.8133 120.978 16.44C120.604 16.0573 120.418 15.6 120.418 15.068V10.812C120.418 10.28 120.604 9.82733 120.978 9.454C121.36 9.07133 121.818 8.88 122.35 8.88H126.844V6.22H128.678V17H122.35ZM122.756 15.166H126.354C126.606 15.166 126.75 15.152 126.788 15.124C126.825 15.0867 126.844 14.9373 126.844 14.676V11.204C126.844 10.9427 126.825 10.798 126.788 10.77C126.75 10.7327 126.606 10.714 126.354 10.714H122.756C122.494 10.714 122.345 10.7327 122.308 10.77C122.28 10.798 122.266 10.9427 122.266 11.204V14.676C122.266 14.9373 122.28 15.0867 122.308 15.124C122.345 15.152 122.494 15.166 122.756 15.166ZM131.688 17C131.156 17 130.698 16.8133 130.316 16.44C129.942 16.0573 129.756 15.6 129.756 15.068V10.812C129.756 10.28 129.942 9.82733 130.316 9.454C130.698 9.07133 131.156 8.88 131.688 8.88H136.182V6.22H138.016V17H131.688ZM132.094 15.166H135.692C135.944 15.166 136.088 15.152 136.126 15.124C136.163 15.0867 136.182 14.9373 136.182 14.676V11.204C136.182 10.9427 136.163 10.798 136.126 10.77C136.088 10.7327 135.944 10.714 135.692 10.714H132.094C131.832 10.714 131.683 10.7327 131.646 10.77C131.618 10.798 131.604 10.9427 131.604 11.204V14.676C131.604 14.9373 131.618 15.0867 131.646 15.124C131.683 15.152 131.832 15.166 132.094 15.166Z" fill="#2541B2"/>
</svg>
